<svg xmlns="http://www.w3.org/2000/svg" height="20" width="20"><path d="M19.707 6.044c-.132-.441-.81-.721-1.537-.797-.895-.095-2.038.102-3.034.534a8.91 8.91 0 0 0-2.176 1.334c-1.132.935-1.733 1.687-2.036 2.107-.244.34-.296.726-.522.904-.01-.09.019-.325-.126-.415l-.14-.085c.054-.238.339-1.377.793-2.032.551-.795 1.168-1.25 1.25-1.303.097-.064.2-.069.268-.114.052-.033.086-.183.057-.2-.104-.058-.222.07-.294.153-.077.088-.877.664-1.367 1.414-.459.7-.746 1.82-.797 2.03a.594.594 0 0 0-.208-.086.479.479 0 0 0-.183.071c-.061-.244-.346-1.338-.793-2.027-.49-.75-1.29-1.314-1.367-1.402-.073-.083-.19-.214-.294-.152-.03.017.005.164.056.2.068.044.172.05.27.113.078.052.695.499 1.249 1.294.445.64.725 1.756.788 2.026l-.17.103c-.144.09-.114.325-.126.415-.203-.114-.366-.612-.664-1.075-.316-.494-.761-1.004-1.893-1.937a8.922 8.922 0 0 0-2.176-1.334c-.994-.434-2.14-.629-3.034-.534-.728.076-1.408.356-1.537.798-.1.341.346 1.405.762 2.022.307.458.372.99.485 1.512.163.747.457 1.863 1.263 2.14.74.254 2.185-.204 2.185-.204s.032.273-.454.477c-.504.214-.777.544-1.069 1.123-.26.517-.467 1.213-.467 1.521 0 .475.113.646.097.867-.02.272.072.543.25.747.202.23.123.434.21.688.082.23.396.416.396.416s-.036.522.323.866c.292.28.62.463.834.662.217.204.38.366.85.46.27.055.438.516 1.003.482.614-.038.612-.011 1.003-.178.63-.27.913-1.554 1.18-2.79.212-.969.372-1.572.65-1.776-.08.567.038 1.51.038 1.51s-.086.484-.006.567c-.037.249.036.588.076.579.016.204.118.572.26.572.143 0 .244-.37.258-.572.04.01.113-.332.077-.58.079-.082-.007-.566-.007-.566s.108-.886.036-1.524c.249.133.443.816.653 1.787.269 1.239.551 2.52 1.182 2.791.39.169.388-.002 1.003.033.567.034.732-.529 1.003-.581.47-.093.63-.254.85-.458.214-.2.542-.382.833-.662.357-.347.323-.867.323-.867s.317-.187.398-.415c.088-.254.009-.458.21-.688.178-.204.271-.475.25-.748-.015-.22.098-.391.098-.866 0-.306-.208-.757-.47-1.275-.292-.579-.563-.909-1.069-1.122-.486-.204-.452-.477-.452-.477s1.444.46 2.185.204c.807-.278 1.1-1.393 1.263-2.14.113-.525.179-1.055.486-1.513.416-.622.863-1.685.764-2.027z" fill="#9c27b0" stroke-width=".023"/></svg>