<svg xmlns="http://www.w3.org/2000/svg" width="35" height="35" viewBox="0 0 9.26 9.26"><defs><linearGradient id="a" gradientUnits="userSpaceOnUse" x1="-1377.338" y1="3098.697" x2="-1354.79" y2="3098.697" gradientTransform="rotate(-34.755 608.846 270.818)"><stop offset="0" stop-color="#f6d0e3"/><stop offset=".226" stop-color="#e5b2d7"/><stop offset=".563" stop-color="#cf8cc7"/><stop offset=".833" stop-color="#c274bd"/><stop offset="1" stop-color="#bd6bb9"/></linearGradient><linearGradient id="b" gradientUnits="userSpaceOnUse" x1="-1406.338" y1="3098.697" x2="-1383.789" y2="3098.697" gradientTransform="rotate(-34.755 608.846 270.818)"><stop offset="0" stop-color="#bd6bb9"/><stop offset=".167" stop-color="#c274bd"/><stop offset=".437" stop-color="#cf8cc7"/><stop offset=".774" stop-color="#e5b2d7"/><stop offset="1" stop-color="#f6d0e3"/></linearGradient></defs><g transform="translate(-85.853 -573.1) scale(.15509)"><ellipse ry="10.115" rx="2.79" cy="3403.816" cx="-1643.526" transform="rotate(-34.755)" fill="#322512"/><circle r="2.432" cy="3723.784" cx="583.525" fill="#322512"/><path d="M587.737 3719.52s.412 11.114 13.559 19.539c4.083 2.93 15.468-1.213 10.332-9.476 0 0-4.475-6.294-11.41-1.921-.169-2.212-.44-1.127 1.174-3.784 1.614-2.657 3.047-7.238-1.552-12.757-.631-1.74-2.343-3.561-2.839-12.12-.134-.932-1.572-7.619-6.93 4.041-1.551 5.239-2.185 12.724-2.334 16.478z" fill="url(#a)"/><path d="M578.056 3726.237s10.267 4.275 13.559 19.539c1.316 4.85-6.549 14.066-12.492 6.363 0 0-4.33-6.394 2.193-11.361-2.013-.932-.902-.807-3.956-.225-3.054.583-7.846.322-11.407-5.917-1.409-1.2-2.516-3.441-10.36-6.9-.826-.452-6.587-4.139 6.211-5.078 5.451.38 12.684 2.405 16.252 3.579z" fill="url(#b)"/></g></svg>