<svg xmlns="http://www.w3.org/2000/svg" width="1306.088" height="588.005" viewBox="0 0 1306.088 588.005"><defs><linearGradient y2="3845.151" x2="600.765" y1="3845.151" x1="590.461" gradientUnits="userSpaceOnUse" id="a"><stop stop-color="#618ec9" offset="0"/><stop stop-color="#d1edfb" offset="1"/></linearGradient><linearGradient y2="3841.519" x2="589.742" y1="3841.519" x1="582.423" gradientUnits="userSpaceOnUse" id="b"><stop stop-color="#618ec9" offset="0"/><stop stop-color="#d1edfb" offset="1"/></linearGradient><linearGradient y2="3791.939" x2="603.224" y1="3803.533" x1="609.918" gradientUnits="userSpaceOnUse" id="c"><stop stop-color="#0082c8" offset="0"/><stop stop-color="#138fcf" offset=".084"/><stop stop-color="#38a7de" offset=".271"/><stop stop-color="#55bae9" offset=".459"/><stop stop-color="#6ac8f1" offset=".644"/><stop stop-color="#77d0f5" offset=".826"/><stop stop-color="#7bd3f7" offset="1"/></linearGradient><linearGradient y2="3771.874" x2="593.254" y1="3795.575" x1="594.496" gradientUnits="userSpaceOnUse" id="d"><stop stop-color="#0082c8" offset="0"/><stop stop-color="#138fcf" offset=".084"/><stop stop-color="#38a7de" offset=".271"/><stop stop-color="#55bae9" offset=".459"/><stop stop-color="#6ac8f1" offset=".644"/><stop stop-color="#77d0f5" offset=".826"/><stop stop-color="#7bd3f7" offset="1"/></linearGradient><linearGradient gradientTransform="rotate(-34.755 611.597 262.028)" y2="3098.697" x2="-1354.79" y1="3098.697" x1="-1377.338" gradientUnits="userSpaceOnUse" id="e"><stop stop-color="#f6d0e3" offset="0"/><stop stop-color="#e5b2d7" offset=".226"/><stop stop-color="#cf8cc7" offset=".563"/><stop stop-color="#c274bd" offset=".833"/><stop stop-color="#bd6bb9" offset="1"/></linearGradient><linearGradient gradientTransform="rotate(-34.755 611.597 262.028)" y2="3098.697" x2="-1383.789" y1="3098.697" x1="-1406.338" gradientUnits="userSpaceOnUse" id="f"><stop stop-color="#bd6bb9" offset="0"/><stop stop-color="#c274bd" offset=".167"/><stop stop-color="#cf8cc7" offset=".437"/><stop stop-color="#e5b2d7" offset=".774"/><stop stop-color="#f6d0e3" offset="1"/></linearGradient></defs><g transform="translate(-828.696 -10227.247) scale(2.77867)"><path d="M583.016 3797.252c-5.988 7.28-12.558 14.075-19.564 20.483-3.545 3.165-7.206 6.187-11.104 9.028-3.911 2.814-8.016 5.515-12.789 7.469-2.382.976-4.953 1.767-7.797 2.087-1.425.145-2.922.163-4.459-.043a14.464 14.464 0 0 1-2.309-.487c-.384-.113-.77-.223-1.146-.377l-1.026-.411c-4.196-1.785-8.444-3.392-12.732-4.761-8.542-2.768-17.356-4.584-25.816-4.557-4.213.025-8.322.592-11.984 1.827-3.666 1.212-6.832 3.151-9.079 5.688-2.24 2.543-3.576 5.665-3.984 9.117a21.115 21.115 0 0 0 .091 5.342c.223 1.665.684 2.989 1.425 4.328 1.449 2.615 4.026 4.9 7.308 6.575 3.278 1.681 7.142 2.768 11.169 3.344 8.091 1.207 16.773.428 25.172-1.508 8.439-1.921 16.645-5.172 24.459-9.229.977-.504 1.95-1.042 2.904-1.569.913-.528 1.828-1.052 2.734-1.631a88.14 88.14 0 0 0 5.4-3.672c3.567-2.611 7.109-5.44 10.632-8.405 7.095-5.912 14.028-12.312 22.428-17.987 2.119-1.408 4.359-2.756 6.859-3.908 2.494-1.145 5.271-2.139 8.445-2.522 5.983-.696 12.038.713 16.987 3.906 4.952 3.151 8.729 7.919 10.725 13.328 2.046 5.404 2.141 11.441.604 16.801-1.531 5.388-4.546 10.06-8.168 13.771-3.617 3.75-7.795 6.668-12.134 9.032-8.734 4.729-18.603 7.045-28.204 7.08-9.617.037-19.119-1.729-27.8-5.334 4.562 1.072 9.189 1.677 13.807 1.884 4.612.247 9.219.109 13.728-.507 4.502-.623 8.922-1.601 13.115-3.132 4.223-1.487 8.111-3.563 11.82-5.995 3.678-2.431 7.07-5.213 9.723-8.449 2.667-3.211 4.604-6.843 5.392-10.585.798-3.736.396-7.549-1.067-10.875-1.453-3.328-3.996-6.129-7.062-7.823-3.031-1.704-6.642-2.347-9.919-1.772-2.954.513-6.565 2.635-9.987 5.136-3.455 2.533-6.864 5.499-10.272 8.58l-10.41 9.438c-3.556 3.164-7.202 6.352-11.144 9.336a100.662 100.662 0 0 1-6.129 4.337 84.676 84.676 0 0 1-3.258 2.025 126.512 126.512 0 0 1-3.234 1.829 111.19 111.19 0 0 1-27.788 10.765c-9.775 2.272-20.048 3.16-30.473 1.583-5.197-.833-10.448-2.352-15.459-5.031-2.497-1.348-4.932-3.003-7.14-5.076-2.211-2.056-4.194-4.547-5.64-7.399a25.693 25.693 0 0 1-1.78-4.451c-.451-1.509-.745-3.172-.899-4.612a34.358 34.358 0 0 1 .127-8.719c.433-2.931 1.288-5.854 2.594-8.587a28.977 28.977 0 0 1 5.153-7.403c4.176-4.335 9.467-7.089 14.72-8.592 5.287-1.512 10.596-1.875 15.711-1.663 10.26.46 19.832 3.233 28.86 6.748 4.51 1.797 8.884 3.833 13.154 6.023l.582.289c.155.091.33.149.501.219.342.137.704.255 1.093.333.767.179 1.62.269 2.526.263 1.818-.028 3.818-.401 5.825-1.021 4.024-1.256 8.098-3.235 12.037-5.492 3.948-2.265 7.81-4.832 11.626-7.455a219.101 219.101 0 0 0 11.31-8.201 324.233 324.233 0 0 0 11.01-8.753" fill="#618ec9"/><path d="M531.727 3823.193c-1.035-.039-1.746-.312-2.508-.556a24.034 24.034 0 0 1-2.107-.879c-1.356-.637-2.656-1.334-3.943-2.044a144.312 144.312 0 0 1-7.492-4.573c-4.889-3.193-9.671-6.556-14.22-10.273a91.791 91.791 0 0 1-6.591-5.905c-2.109-2.081-4.122-4.349-5.893-6.849-3.473-4.992-6.164-10.624-7.388-16.747-1.173-6.081-1.043-12.732 1.522-18.868 1.264-3.055 3.177-5.876 5.524-8.245 1.198-1.148 2.46-2.253 3.826-3.163a24.445 24.445 0 0 1 4.374-2.456c3.111-1.396 6.651-1.991 10.028-1.895 3.388.113 6.581.865 9.527 1.769 2.941.913 5.685 1.981 8.281 2.833 2.585.857 5.046 1.456 7.06 1.389 2.013-.061 4.404-.773 6.936-1.744 2.541-.965 5.237-2.151 8.171-3.195 2.942-1.033 6.179-1.935 9.707-2.183 3.514-.229 7.295.265 10.647 1.629a26.088 26.088 0 0 1 4.726 2.439c1.475.911 2.864 2.036 4.186 3.221 2.596 2.447 4.797 5.419 6.252 8.691 1.474 3.261 2.313 6.733 2.611 10.149.326 3.425.122 6.808-.407 10.088-1.107 6.577-4.125 12.522-7.993 17.676-1.975 2.604-4.186 4.9-6.436 6.951a88.512 88.512 0 0 1-6.982 5.757c-4.798 3.556-9.788 6.716-14.879 9.672a149.003 149.003 0 0 1-7.773 4.213c-1.329.648-2.669 1.285-4.062 1.859-.696.289-1.414.551-2.162.784-.778.212-1.505.452-2.542.455m0-2.591c.416-.021 1.087-.235 1.685-.451a22.515 22.515 0 0 0 1.869-.817 40.211 40.211 0 0 0 3.691-2.037 82.445 82.445 0 0 0 7.043-4.844c4.55-3.459 8.839-7.276 12.819-11.288 1.991-2.003 3.917-4.047 5.669-6.167 1.771-2.121 3.321-4.271 4.559-6.508 1.252-2.264 2.224-4.684 2.981-7.132a54.99 54.99 0 0 0 1.785-7.371c.85-4.903.549-9.884-1.262-13.969a17.7 17.7 0 0 0-3.691-5.465c-1.584-1.525-3.572-2.963-5.548-3.79-1.977-.913-4.058-1.28-6.307-1.26-2.256.052-4.683.563-7.226 1.336-2.555.779-5.213 1.808-8.123 2.775-2.903.941-6.148 1.912-9.943 1.88-3.793-.096-6.969-1.181-9.82-2.235-2.855-1.081-5.463-2.225-8.013-3.135-2.538-.904-5.009-1.564-7.405-1.75-2.387-.155-4.706.115-6.928.993-2.225.805-4.416 2.228-6.26 3.832-1.82 1.661-3.34 3.644-4.42 5.911-2.198 4.528-2.689 10.004-1.942 15.339.759 5.337 2.485 10.717 5.372 15.433 1.441 2.339 3.189 4.517 5.101 6.609 1.903 2.094 3.946 4.091 6.06 6.016 4.231 3.852 8.726 7.465 13.48 10.688a83.49 83.49 0 0 0 7.321 4.484 41.12 41.12 0 0 0 3.812 1.852c.641.276 1.288.517 1.923.723.612.184 1.299.363 1.718.348" fill="#a180bf"/><path d="M530.642 3740.65c-8.387 0-15.186-6.84-15.186-15.276 0-8.438 6.8-15.277 15.186-15.277s15.186 6.84 15.186 15.277c.001 8.437-6.798 15.277-15.186 15.277m0-41.507c-12.1 0-21.91 9.868-21.91 22.04 0 12.173 9.81 22.04 21.91 22.04s21.91-9.867 21.91-22.04c0-12.171-9.81-22.04-21.91-22.04" fill="#bd6bb9"/><path d="M591.849 3842.792c1.406-1.908 5.511-5.126 8.82-3.474.257.3.056 1.503-1.329 2.699-1.385 1.195-1.613 2.485-1.766 2.833-.153.347-.962 1.807-4.435 1.115 1.555.926 5.324 3.337.616 5.464-.423.087-3.661-.093-3.26-4.316.6-2.757.323-2.924 1.354-4.321z" fill="url(#a)"/><path d="M589.738 3842.13c-.066-2.369-1.6-7.354-5.26-7.886-.383.1-.904 1.202-.449 2.974.455 1.772-.093 2.962-.166 3.334-.073.373-.242 2.033 3.006 3.446-1.805-.126-6.277-.297-3.624 4.136.297.313 3.059 2.013 5.14-1.684 1.079-2.605 1.401-2.584 1.353-4.32z" fill="url(#b)"/><ellipse transform="rotate(17.397)" cx="1712.661" cy="3492.352" rx=".613" ry="2.892" fill="#322512"/><circle cx="591.101" cy="3841.585" r=".534" fill="#322512"/><ellipse transform="rotate(48.982)" cx="3255.073" cy="2038.125" rx="1.458" ry="6.88" fill="#322512"/><circle cx="604.446" cy="3788.667" r="1.271" fill="#322512"/><path d="M602.007 3792.966s2.033-2.855 7.454-1.683c3.317.659 8.265 1.352 10.408 4.078.606 1.091 1.245 1.563-.226 2.5s-2.472 1.693-4.597 1.484c-1.511.629-7.208 3.412-10.482.372-1.986-2.217-3.025-3.543-2.733-2.025.292 1.519 2.973 6.637-1.661 9.372-.877.306-8.353-1.804-2.773-9.496 1.803-2.046 2.972-3.334 4.61-4.602z" fill="url(#c)"/><path d="M599.852 3790.489s3.109-1.618 2.698-7.15c-.193-3.376-.194-8.372-2.598-10.872-.996-.751-1.376-1.45-2.508-.122-1.132 1.328-2.019 2.214-2.106 4.348-.832 1.41-4.377 6.666-1.819 10.329 1.921 2.274 3.09 3.486 1.627 2.987-1.463-.499-6.162-3.863-9.512.347-.424.827.63 8.523 9.021 4.061 2.277-1.502 3.714-2.483 5.197-3.928z" fill="url(#d)"/><ellipse transform="rotate(-34.755)" cx="-1639.005" cy="3406.953" rx="2.79" ry="10.115" fill="#322512"/><circle cx="589.027" cy="3723.784" r="2.432" fill="#322512"/><path d="M593.239 3719.52s.412 11.114 13.559 19.539c4.083 2.93 15.468-1.213 10.332-9.476 0 0-4.475-6.294-11.41-1.921-.169-2.212-.44-1.127 1.174-3.784 1.614-2.657 3.047-7.238-1.552-12.757-.631-1.74-2.343-3.561-2.839-12.12-.134-.932-1.572-7.619-6.93 4.041-1.551 5.239-2.185 12.724-2.334 16.478z" fill="url(#e)"/><path d="M583.558 3726.237s10.267 4.275 13.559 19.539c1.316 4.85-6.549 14.066-12.492 6.363 0 0-4.33-6.394 2.193-11.361-2.013-.932-.902-.807-3.956-.225-3.054.583-7.846.322-11.407-5.917-1.409-1.2-2.516-3.441-10.36-6.9-.826-.452-6.587-4.139 6.211-5.078 5.451.38 12.684 2.405 16.252 3.579z" fill="url(#f)"/></g></svg>